<?xml version="1.0" encoding="utf-8"?>
<!-- Generator: Adobe Illustrator 21.0.0, SVG Export Plug-In . SVG Version: 6.00 Build 0)  -->
<svg version="1.1" id="图层_1" xmlns="http://www.w3.org/2000/svg" xmlns:xlink="http://www.w3.org/1999/xlink" x="0px" y="0px"
	 viewBox="0 0 1464 258" style="enable-background:new 0 0 1464 258;" xml:space="preserve">
<style type="text/css">
	.st0{display:none;fill:#134240;}
	.st1{fill:#FFFFFF;}
	.st2{fill:#C4D600;}
</style>
<rect x="0" class="st0" width="1464" height="258"/>
<g>
	<path class="st1" d="M298.5,124.8c0,40.2-17.9,60.5-53.2,60.5c-35.3,0-53-20.3-53-60.5c0-40.6,17.6-60.7,53-60.7
		C280.6,64.1,298.5,84.2,298.5,124.8z M222.2,124.8c0.2,22.7,7.9,34.2,23,34.2c15,0,22.5-11.9,22.7-35.1c0-22.7-7.5-34-22.5-34
		C229.9,89.9,222.2,101.6,222.2,124.8z"/>
	<path class="st1" d="M397.1,182.6c-9.7-0.7-14.6-5.3-14.6-14.6l0-60c-0.7-12.1-7.3-18.1-20.3-18.1c-13,0-19.6,5.9-19.8,18.1l0,74.6
		h-29.8v-68.7c0-33.3,16.8-49.9,50.1-49.9c33.3,0,49.7,16.6,49.5,49.9v68.6L397.1,182.6z"/>
	<path class="st1" d="M477.5,185.2c-35.3-1.1-52.9-21.6-52.9-61.4c0-39.7,17.9-59.6,53.4-59.8c37.1,0,54.5,22.7,52.3,68.4h-75.4
		c1.1,17.9,8.8,26.9,23.1,26.9c6.9,0,13.2-2.9,19-8.4c2.6-2.9,6-4.2,9.9-4.2h21.6C522,171.5,506.2,185.2,477.5,185.2z M455.2,111.5
		h43.9c-1.8-15.4-9.1-23.4-21.6-23.4C464.9,88.1,457.4,96.1,455.2,111.5z"/>
	<path class="st1" d="M553.4,203.3c16.1,0,21.9-8,17.2-23.4L530.9,65.9h33.3l23.2,81l20.3-70.6c1.8-6.8,6.4-10.4,13.9-10.4h20.5
		L596,202.5c-7.1,19.2-14.2,25.8-38.4,25.8c-7.5,0-11.5-0.2-12.4-0.9v-24H553.4z"/>
	<path class="st1" d="M132.3,32.5L103,146.8L73.5,35.4l-1.4-5.5H55.4C37,29.9,27.7,39,27.5,57.3l0,125.3h28.9l0-121.2l30.7,121.2
		h31.3l30.7-121.2v121.2l28.9-0.1v-150H132.3z"/>
	<path class="st1" d="M737.7,141.3c0-7.3-4.4-12.1-13.6-14.8c-8.9-2.6-19-5.3-29.8-8.2c-29.3-7.5-43.9-21.2-43.9-41
		c0.6-31.6,19.4-47,56.5-46.8c35.3,0,53.6,15.4,55.3,46.5l-17.2,0c-6.4,0-10.8-3.1-13.7-8.8c-5.1-8.6-14.1-12.8-27.2-12.8
		c-15.9,0.2-23.8,6.2-24.5,17.6c0,9.5,9.5,16.4,29.1,20.8c11.3,2.6,23.2,5.9,35.8,10.4c16.8,5.7,24.7,18.1,23.8,37.1
		c-1.8,29.3-21.6,43.9-59.6,43.9c-39.7,0-59.8-16.6-60.7-49.2h29.8c1.1,15.9,11.3,23.8,30.9,23.8
		C728.4,159.8,737.9,153.7,737.7,141.3z"/>
	<path class="st2" d="M842.5,101.9v29.6c0.1,3.1,1.1,9.4,6.4,14.6l49.3,49.4l18.9-18.9L842.5,101.9z"/>
	<path class="st2" d="M953.1,173.6c-0.2-3.1-1.1-9.4-6.3-14.6l-44.2-44.2l0.1,0l-7.7-7.7c0,0.3,0,0.6,0,0.9c0,2.6-0.1,5-0.2,7.3
		h-0.1c-0.7,8.7-2.7,16.7-6.2,23.2c0,0,0,0,0,0l21.3,21.3c0,0,0,0,0,0l0,0l43.3,43.4V173.6z"/>
	<g>
		<g>
			<path class="st1" d="M1003.9,159.4v23.2l-24.9-0.1V168c0-5.7,3.1-8.6,9.5-8.6H1003.9z"/>
			<path class="st1" d="M1081.7,185.2c-35.3,0-53.4-20.3-54.3-60.4c0-39.9,17.8-60,53.8-60.7c28.2,0,45,12.6,50.1,37.9h-32
				c-3.5-7.9-9.7-12.1-18.9-12.1c-15.5,0-23.2,11.7-23.2,34.9c0,23.2,8.2,34.9,24.5,34.6c6.8,0,12.8-2.9,17.6-8.4
				c2.9-2.9,6.2-4.2,9.9-4.2h22.1C1126,170.6,1108.8,185.9,1081.7,185.2z"/>
			<path class="st1" d="M1250.9,124.8c0,40.1-17.9,60.4-53.2,60.4c-35.3,0-53-20.3-53-60.4c0-40.6,17.6-60.7,53-60.7
				C1233,64.1,1250.9,84.2,1250.9,124.8z M1174.6,124.8c0.2,22.7,7.9,34.2,22.9,34.2c15,0,22.5-11.9,22.7-35.1
				c0-22.7-7.5-34-22.5-34C1182.3,89.9,1174.6,101.6,1174.6,124.8z"/>
			<path class="st1" d="M1295.9,108l0,74.6h-29.8V114c0-33.3,16.8-49.9,50-49.9c15,0,26.5,3.3,34.9,9.9c8.4-6.4,19.8-9.5,34.9-9.5
				c33.3,0,49.9,16.6,49.7,49.9V183h-15.3c-9.7-0.7-14.5-5.3-14.5-14.6v-60c-0.7-12.1-7.3-18.1-20.3-18.1c-13,0-19.7,6-19.9,18.1
				v74.1h-29.5V108c-0.7-12.1-7.3-18.1-20.3-18.1C1302.8,89.9,1296.1,95.9,1295.9,108z"/>
		</g>
	</g>
	<g>
		<path class="st1" d="M853.9,159c-19.9,0-32.3-10.6-37.8-27.4c-0.1-0.3-0.2-0.6-0.2-0.9c-0.1-0.1-0.1-0.2-0.1-0.2
			c-2.1-6.7-3.1-14.3-3-22.5c0-28.7,13-50.7,41-50.7c28,0,41.3,21.2,41.3,50.7c0-0.3,0-0.6,0-0.9l7.7,7.7l-0.1,0l19.7,19.7
			c2.2-7.9,3.3-16.8,3.3-26.5c0-45.5-26.5-77-72-77c-45,0-71.7,31.8-71.7,77c0,2.5,0.1,4.9,0.3,7.3h-0.1c0.2,3.2,0.5,6.3,1,9.3
			c0,0,0,0.1,0,0.1c0.2,1.1,0.4,2.1,0.5,3.2c0.1,0.5,0.2,1.1,0.3,1.7c0.1,0.5,0.2,0.9,0.3,1.4c7.4,33.3,31.7,54.4,69.3,54.4
			c0.1,0,0.1,0,0.1,0c0,0,0.1,0,0.1,0c1.5,0,2.9,0,4.3-0.1c9.2-0.4,17.5-2,24.9-4.8l-22-22C858.8,158.8,856.5,159,853.9,159z"/>
		<path class="st1" d="M909.8,159.8C909.8,159.8,909.8,159.8,909.8,159.8L909.8,159.8L909.8,159.8z"/>
	</g>
</g>
</svg>
